<svg width="64" height="16" viewBox="0 0 64 16" fill="none" xmlns="http://www.w3.org/2000/svg">
<path d="M15.5 8C15.5 10.3502 14.5672 11.9581 13.3084 12.988C12.0339 14.0307 10.4 14.5 9 14.5C7.33848 14.5 5.7138 14.0247 4.5129 12.9954C3.32484 11.977 2.5 10.373 2.5 8C2.5 6.08608 2.75364 4.48597 3.64245 3.36006C4.5102 2.26084 6.08024 1.5 9 1.5C11.9198 1.5 13.4898 2.26084 14.3575 3.36006C15.2464 4.48597 15.5 6.08608 15.5 8Z" fill="#2C2C2C"/>
<path d="M15.5 8C15.5 10.3502 14.5672 11.9581 13.3084 12.988C12.0339 14.0307 10.4 14.5 9 14.5C7.33848 14.5 5.7138 14.0247 4.5129 12.9954C3.32484 11.977 2.5 10.373 2.5 8C2.5 6.08608 2.75364 4.48597 3.64245 3.36006C4.5102 2.26084 6.08024 1.5 9 1.5C11.9198 1.5 13.4898 2.26084 14.3575 3.36006C15.2464 4.48597 15.5 6.08608 15.5 8Z" stroke="white"/>
<path d="M15.5 8C15.5 10.3502 14.5672 11.9581 13.3084 12.988C12.0339 14.0307 10.4 14.5 9 14.5C7.33848 14.5 5.7138 14.0247 4.5129 12.9954C3.32484 11.977 2.5 10.373 2.5 8C2.5 6.08608 2.75364 4.48597 3.64245 3.36006C4.5102 2.26084 6.08024 1.5 9 1.5C11.9198 1.5 13.4898 2.26084 14.3575 3.36006C15.2464 4.48597 15.5 6.08608 15.5 8Z" stroke="url(#paint0_linear_108_2)" stroke-opacity="0.8"/>
<path d="M12.9401 9.76087C12.5461 9.41304 5.45392 9.41304 5.05991 9.76087C4.66591 10.1087 6.24194 11.5 9 11.5C11.7581 11.5 13.3341 10.1087 12.9401 9.76087Z" fill="white"/>
<path d="M6 4.9C6 4.36667 7 4.36666 7 4.9C7 5.43334 7 7.56667 7 8.1C7 8.63333 6 8.63333 6 8.1C6 7.56667 6 5.43334 6 4.9Z" fill="white"/>
<path d="M11 4.9C11 4.36667 12 4.36666 12 4.9C12 5.43334 12 7.56667 12 8.1C12 8.63333 11 8.63333 11 8.1C11 7.56667 11 5.43334 11 4.9Z" fill="white"/>
<path d="M21.6042 6.68H22.5672L23.8362 9.785L25.1052 6.68H26.0682L24.2322 11H23.4402L21.6042 6.68ZM28.7458 11.135C28.2598 11.135 27.8308 11.045 27.4588 10.865C27.0928 10.679 26.8048 10.415 26.5948 10.073C26.3908 9.725 26.2888 9.317 26.2888 8.849C26.2888 8.387 26.3908 7.982 26.5948 7.634C26.7988 7.286 27.0868 7.019 27.4588 6.833C27.8308 6.641 28.2598 6.545 28.7458 6.545C29.2318 6.545 29.6608 6.641 30.0328 6.833C30.4048 7.019 30.6928 7.286 30.8968 7.634C31.1068 7.982 31.2118 8.387 31.2118 8.849C31.2118 9.317 31.1068 9.725 30.8968 10.073C30.6928 10.415 30.4048 10.679 30.0328 10.865C29.6608 11.045 29.2318 11.135 28.7458 11.135ZM28.7458 10.415C29.2138 10.415 29.5858 10.271 29.8618 9.983C30.1378 9.695 30.2758 9.317 30.2758 8.849C30.2758 8.363 30.1378 7.979 29.8618 7.697C29.5858 7.415 29.2138 7.274 28.7458 7.274C28.2778 7.274 27.9058 7.415 27.6298 7.697C27.3538 7.979 27.2158 8.363 27.2158 8.849C27.2158 9.317 27.3538 9.695 27.6298 9.983C27.9058 10.271 28.2778 10.415 28.7458 10.415ZM33.2844 8.741L31.5924 6.68H32.6274L33.7974 8.111L34.9764 6.68H36.0114L34.3194 8.741L36.1734 11H35.1474L33.7974 9.371L32.4564 11H31.4304L33.2844 8.741ZM39.3653 11.135C38.5673 11.135 37.9403 10.937 37.4843 10.541C37.0343 10.139 36.8093 9.575 36.8093 8.849C36.8093 8.141 37.0103 7.58 37.4123 7.166C37.8203 6.752 38.3993 6.545 39.1493 6.545C39.6473 6.545 40.0703 6.641 40.4183 6.833C40.7663 7.019 41.0273 7.28 41.2013 7.616C41.3813 7.946 41.4713 8.324 41.4713 8.75V9.2H37.6733C37.7033 9.608 37.8743 9.914 38.1863 10.118C38.5043 10.316 38.9333 10.415 39.4733 10.415C39.7493 10.415 40.0283 10.391 40.3103 10.343C40.5923 10.289 40.8413 10.22 41.0573 10.136V10.865C40.8653 10.943 40.6103 11.006 40.2923 11.054C39.9803 11.108 39.6713 11.135 39.3653 11.135ZM40.6163 8.561C40.6043 8.153 40.4693 7.838 40.2113 7.616C39.9593 7.388 39.5993 7.274 39.1313 7.274C38.6753 7.274 38.3213 7.391 38.0693 7.625C37.8173 7.859 37.6853 8.171 37.6733 8.561H40.6163ZM42.4649 4.349H43.3739V11H42.4649V4.349ZM45.0789 5.834C44.9289 5.834 44.8029 5.783 44.7009 5.681C44.5989 5.579 44.5479 5.453 44.5479 5.303C44.5479 5.153 44.5989 5.027 44.7009 4.925C44.8029 4.823 44.9289 4.772 45.0789 4.772C45.2349 4.772 45.3639 4.823 45.4659 4.925C45.5739 5.027 45.6279 5.153 45.6279 5.303C45.6279 5.453 45.5739 5.579 45.4659 5.681C45.3639 5.783 45.2349 5.834 45.0789 5.834ZM44.6199 6.68H45.5469V11H44.6199V6.68ZM47.0949 7.382H46.4379V6.68H47.0949V5.861C47.0949 5.363 47.2539 4.979 47.5719 4.709C47.8899 4.439 48.2859 4.304 48.7599 4.304C48.9999 4.304 49.2339 4.34 49.4619 4.412V5.15C49.2939 5.084 49.1199 5.051 48.9399 5.051C48.6339 5.051 48.3999 5.126 48.2379 5.276C48.0819 5.42 48.0039 5.633 48.0039 5.915V6.68H50.9199V11H50.0109V7.382H48.0039V11H47.0949V7.382ZM50.4609 5.834C50.3049 5.834 50.1759 5.783 50.0739 5.681C49.9719 5.579 49.9209 5.453 49.9209 5.303C49.9209 5.153 49.9719 5.027 50.0739 4.925C50.1819 4.823 50.3109 4.772 50.4609 4.772C50.6109 4.772 50.7369 4.823 50.8389 4.925C50.9469 5.027 51.0009 5.153 51.0009 5.303C51.0009 5.453 50.9469 5.579 50.8389 5.681C50.7369 5.783 50.6109 5.834 50.4609 5.834ZM54.544 11.135C53.746 11.135 53.119 10.937 52.663 10.541C52.213 10.139 51.988 9.575 51.988 8.849C51.988 8.141 52.189 7.58 52.591 7.166C52.999 6.752 53.578 6.545 54.328 6.545C54.826 6.545 55.249 6.641 55.597 6.833C55.945 7.019 56.206 7.28 56.38 7.616C56.56 7.946 56.65 8.324 56.65 8.75V9.2H52.852C52.882 9.608 53.053 9.914 53.365 10.118C53.683 10.316 54.112 10.415 54.652 10.415C54.928 10.415 55.207 10.391 55.489 10.343C55.771 10.289 56.02 10.22 56.236 10.136V10.865C56.044 10.943 55.789 11.006 55.471 11.054C55.159 11.108 54.85 11.135 54.544 11.135ZM55.795 8.561C55.783 8.153 55.648 7.838 55.39 7.616C55.138 7.388 54.778 7.274 54.31 7.274C53.854 7.274 53.5 7.391 53.248 7.625C52.996 7.859 52.864 8.171 52.852 8.561H55.795ZM59.7316 11.135C59.2996 11.135 58.9096 11.042 58.5616 10.856C58.2196 10.664 57.9496 10.397 57.7516 10.055C57.5596 9.707 57.4636 9.305 57.4636 8.849C57.4636 8.399 57.5596 8 57.7516 7.652C57.9496 7.304 58.2196 7.034 58.5616 6.842C58.9096 6.644 59.2996 6.545 59.7316 6.545C60.5116 6.545 61.1026 6.782 61.5046 7.256V4.349H62.4136V11H61.5316V10.37C61.2916 10.634 61.0276 10.829 60.7396 10.955C60.4576 11.075 60.1216 11.135 59.7316 11.135ZM59.9386 10.415C60.3106 10.415 60.6346 10.319 60.9106 10.127C61.1926 9.929 61.3906 9.665 61.5046 9.335V8.363C61.4026 8.033 61.2076 7.769 60.9196 7.571C60.6376 7.373 60.3106 7.274 59.9386 7.274C59.6446 7.274 59.3776 7.34 59.1376 7.472C58.9036 7.604 58.7176 7.79 58.5796 8.03C58.4476 8.27 58.3816 8.543 58.3816 8.849C58.3816 9.155 58.4476 9.428 58.5796 9.668C58.7176 9.908 58.9036 10.094 59.1376 10.226C59.3776 10.352 59.6446 10.415 59.9386 10.415Z" fill="white"/>
<defs>
<linearGradient id="paint0_linear_108_2" x1="8" y1="3.5" x2="12.5" y2="9.5" gradientUnits="userSpaceOnUse">
<stop stop-color="#75B6DB"/>
<stop offset="0.234375" stop-color="#CBB3FF"/>
<stop offset="0.536458" stop-color="#EFACF0"/>
<stop offset="1" stop-color="#A269FF"/>
</linearGradient>
</defs>
</svg>
