<svg width="16" height="16" viewBox="0 0 16 16" fill="none" xmlns="http://www.w3.org/2000/svg">
<path d="M14.5 8C14.5 10.3502 13.5672 11.9581 12.3084 12.988C11.0339 14.0307 9.39997 14.5 8 14.5C6.33848 14.5 4.7138 14.0247 3.5129 12.9954C2.32484 11.977 1.5 10.373 1.5 8C1.5 6.08608 1.75364 4.48597 2.64245 3.36006C3.5102 2.26084 5.08024 1.5 8 1.5C10.9198 1.5 12.4898 2.26084 13.3575 3.36006C14.2464 4.48597 14.5 6.08608 14.5 8Z" fill="#2C2C2C"/>
<path d="M14.5 8C14.5 10.3502 13.5672 11.9581 12.3084 12.988C11.0339 14.0307 9.39997 14.5 8 14.5C6.33848 14.5 4.7138 14.0247 3.5129 12.9954C2.32484 11.977 1.5 10.373 1.5 8C1.5 6.08608 1.75364 4.48597 2.64245 3.36006C3.5102 2.26084 5.08024 1.5 8 1.5C10.9198 1.5 12.4898 2.26084 13.3575 3.36006C14.2464 4.48597 14.5 6.08608 14.5 8Z" stroke="white"/>
<path d="M14.5 8C14.5 10.3502 13.5672 11.9581 12.3084 12.988C11.0339 14.0307 9.39997 14.5 8 14.5C6.33848 14.5 4.7138 14.0247 3.5129 12.9954C2.32484 11.977 1.5 10.373 1.5 8C1.5 6.08608 1.75364 4.48597 2.64245 3.36006C3.5102 2.26084 5.08024 1.5 8 1.5C10.9198 1.5 12.4898 2.26084 13.3575 3.36006C14.2464 4.48597 14.5 6.08608 14.5 8Z" stroke="url(#paint0_linear_106_2)" stroke-opacity="0.8"/>
<path d="M11.9401 9.76087C11.5461 9.41304 4.45392 9.41304 4.05991 9.76087C3.66591 10.1087 5.24194 11.5 8 11.5C10.7581 11.5 12.3341 10.1087 11.9401 9.76087Z" fill="white"/>
<path d="M5 4.9C5 4.36667 6 4.36666 6 4.9C6 5.43334 6 7.56667 6 8.1C6 8.63333 5 8.63333 5 8.1C5 7.56667 5 5.43334 5 4.9Z" fill="white"/>
<path d="M10 4.9C10 4.36667 11 4.36666 11 4.9C11 5.43334 11 7.56667 11 8.1C11 8.63333 10 8.63333 10 8.1C10 7.56667 10 5.43334 10 4.9Z" fill="white"/>
<defs>
<linearGradient id="paint0_linear_106_2" x1="7" y1="3.5" x2="11.5" y2="9.5" gradientUnits="userSpaceOnUse">
<stop stop-color="#75B6DB"/>
<stop offset="0.234375" stop-color="#CBB3FF"/>
<stop offset="0.536458" stop-color="#EFACF0"/>
<stop offset="1" stop-color="#A269FF"/>
</linearGradient>
</defs>
</svg>
